<svg width="500" height="500" viewBox="0 0 500 500" fill="none" xmlns="http://www.w3.org/2000/svg">
<path fill-rule="evenodd" clip-rule="evenodd" d="M372.498 183.912C354.33 187.703 338.349 200.694 316.631 229.321C302.183 248.367 289.442 261.731 285.731 261.731C284.418 261.731 281.765 258.678 279.838 254.945C273.972 243.589 258.317 227.723 245.594 220.231C228.336 210.072 210.114 205.043 190.174 204.938C174.991 204.856 172.926 205.307 160.183 211.501C145.738 218.521 133.874 221.309 129.878 218.622C127.959 217.334 127.89 215.473 129.536 209.362C132.194 199.483 128.632 192.965 120.574 192.965C115.325 192.965 108.281 199.93 105.477 207.895C104.283 211.288 100.632 212.281 100.632 209.214C100.632 208.197 98.6015 206.438 96.1187 205.307C89.9687 202.502 84.3576 207.475 84.3576 215.725C84.3576 220.783 83.5077 221.926 78.4806 223.626C72.063 225.794 50 245.897 50 249.576C50 250.832 52.4249 254.804 55.3905 258.403C61.1409 265.383 64.913 266.624 85.5927 268.34C96.3195 269.23 97.144 269.661 105.936 278.962C110.976 284.295 115.099 290.263 115.099 292.225C115.099 296.043 106.612 304.167 100.641 306.063C96.1748 307.482 95.8873 310.488 100.18 310.877C106.393 311.441 110.039 310.529 120.185 305.879C139.048 297.234 150.284 293.655 158.641 293.631C175.082 293.586 185.544 302.209 179.51 310.83C177.899 313.132 176.581 315.605 176.581 316.327C176.581 318.796 190.911 317.149 191.439 314.621C191.783 312.983 195.537 311.972 202.801 311.557C213.461 310.949 229.262 305.546 231.641 301.693C233.168 299.221 251.927 299.103 253.44 301.555C254.061 302.558 253.091 303.837 251.287 304.4C242.07 307.276 239.945 311.123 247.025 312.124C256.127 313.408 264.952 309.1 268.842 301.47C270.851 297.529 273.303 294.304 274.292 294.304C276.91 294.304 283.255 283.206 283.263 278.611C283.268 275.772 284.925 274.132 289.225 272.712C297.073 270.12 310.228 256.212 327.286 232.468C350.39 200.309 364.377 190.667 388.151 190.51C398.185 190.443 403.889 191.404 410.071 194.203C420.529 198.935 431.26 210.545 434.112 215.629C435.49 218.49 448.726 242.857 449.768 242.857C451.849 242.857 439.349 214.963 435.49 207.366C432.156 200.799 419.791 191.413 410.737 187.529C401.469 183.553 382.713 181.778 372.498 183.912ZM205.965 296.288C210.689 297.6 214.555 299.206 214.555 299.858C214.555 301.483 194.269 309.689 192.273 308.455C191.39 307.91 191.047 300.649 191.047 297.605C191.047 293.193 191.689 292.257 194.211 292.987C195.953 293.49 201.242 294.976 205.965 296.288Z" fill="#080809"/>
</svg>
